# xmcd
#
# Track frame offsets: 
#        182
#        23412
#        44485
#        65935
#        85175
#        103902
#        125522
#        146555
#        166305
#        185147
#
# Disc length: 2735 seconds
#
# Revision: 6
# Processed by: cddbd v1.5.2PL0 Copyright (c) Steve Scherf et al.
# Submitted via: ExactAudioCopyFreeDBPlugin 1.0
#
DISCID=900aad0a
DTITLE=孟庭苇 - 冬季到台北来看雨
DYEAR=1992
DGENRE=Pop
TTITLE0=冬季到台北来看雨
TTITLE1=无声的雨
TTITLE2=把他换作你
TTITLE3=没有情人的情人节
TTITLE4=两小无猜
TTITLE5=哑哑与亚亚
TTITLE6=偏心
TTITLE7=心港
TTITLE8=千年的新娘
TTITLE9=等待花开
EXTD=YEAR: 1992
EXTT0=
EXTT1=
EXTT2=
EXTT3=
EXTT4=
EXTT5=
EXTT6=
EXTT7=
EXTT8=
EXTT9=
PLAYORDER=
